<?xml version="1.0" encoding="iso-8859-1"?>
<!-- Uploaded to: SVG Repo, www.svgrepo.com, Generator: SVG Repo Mixer Tools -->
<svg height="800px" width="800px" version="1.1" id="Capa_1" xmlns="http://www.w3.org/2000/svg" xmlns:xlink="http://www.w3.org/1999/xlink" 
	 viewBox="0 0 378.954 378.954" xml:space="preserve">
<g>
	<g>
		<path style="fill:#010002;" d="M106.236,93.007c-3.146-3.211-8.291-3.251-11.494-0.114s-3.251,8.291-0.114,11.494l89.04,90.772
			c1.593,1.626,3.69,2.439,5.804,2.439c2.057,0,4.113-0.772,5.69-2.325c3.219-3.146,3.243-8.291,0.114-11.494L106.236,93.007z"/>
		<path style="fill:#010002;" d="M189.473,0C150.139,0,113.56,12.055,83.249,32.669l-30.482,0.927
			c-4.487,0.138-8.015,3.885-7.877,8.372c0.138,4.406,3.739,7.885,8.12,7.885c0.081,0,0.171,0,0.252,0l8.576-0.26
			C23.878,84.269,0.012,134.138,0.012,189.485c0,104.477,85.001,189.469,189.469,189.469s189.461-85.017,189.461-189.485
			S293.95,0,189.473,0z M189.473,362.673c-95.511,0-173.212-77.701-173.212-173.212c0-52.47,23.54-99.469,60.509-131.252v12.624
			c0,4.487,3.642,8.129,8.129,8.129c4.487,0,8.129-3.642,8.129-8.129V45.674c27.588-18.566,60.769-29.425,96.446-29.425
			c95.511,0,173.212,77.701,173.212,173.212S284.984,362.673,189.473,362.673z"/>
	</g>
</g>
</svg>