<?xml version="1.0" encoding="iso-8859-1"?>
<!-- Uploaded to: SVG Repo, www.svgrepo.com, Generator: SVG Repo Mixer Tools -->
<svg fill="#000000" height="800px" width="800px" version="1.1" id="Capa_1" xmlns="http://www.w3.org/2000/svg" xmlns:xlink="http://www.w3.org/1999/xlink" 
	 viewBox="0 0 470 470" xml:space="preserve">
<g>
	<path d="M457.197,389.357l-11.587,11.587l-62.763-62.763l30.12-30.12c1.407-1.407,2.197-3.314,2.197-5.304s-0.79-3.896-2.197-5.304
		l-21.213-21.213c-2.929-2.928-7.678-2.928-10.606,0l-20.615,20.615L96.276,2.49C94.854,0.905,92.824,0,90.695,0H7.5
		C7.44,0,7.382,0.008,7.322,0.009c-0.186,0.004-0.372,0.01-0.557,0.028c-0.132,0.013-0.26,0.037-0.39,0.056
		C6.263,0.11,6.151,0.123,6.039,0.145C5.902,0.172,5.768,0.209,5.633,0.244C5.531,0.27,5.428,0.292,5.327,0.323
		C5.197,0.362,5.072,0.41,4.945,0.456C4.841,0.494,4.736,0.528,4.633,0.57C4.516,0.619,4.404,0.675,4.29,0.73
		C4.182,0.781,4.073,0.828,3.967,0.885C3.86,0.943,3.758,1.008,3.653,1.07C3.547,1.134,3.44,1.194,3.336,1.263
		C3.224,1.338,3.119,1.421,3.011,1.502C2.923,1.568,2.832,1.629,2.746,1.7c-0.179,0.147-0.35,0.302-0.514,0.465
		C2.005,2.393,1.848,2.566,1.7,2.746C1.629,2.833,1.567,2.924,1.5,3.014C1.42,3.12,1.338,3.225,1.263,3.336
		C1.192,3.443,1.13,3.553,1.065,3.663c-0.06,0.1-0.123,0.199-0.178,0.302c-0.06,0.112-0.111,0.227-0.165,0.342
		C0.671,4.414,0.617,4.52,0.571,4.63C0.525,4.742,0.488,4.855,0.447,4.969C0.405,5.086,0.36,5.202,0.324,5.322
		c-0.035,0.115-0.06,0.231-0.089,0.347C0.204,5.791,0.17,5.91,0.146,6.034C0.119,6.169,0.103,6.306,0.083,6.442
		c-0.015,0.106-0.035,0.21-0.046,0.317C0.013,7.006,0,7.254,0,7.503v83.192c0,2.13,0.905,4.158,2.49,5.581l294.364,264.257
		l-20.614,20.614c-2.929,2.93-2.929,7.678,0,10.606l21.213,21.214c1.406,1.407,3.314,2.197,5.303,2.197s3.897-0.79,5.303-2.196
		l30.121-30.121l62.763,62.763l-11.587,11.587c-2.929,2.93-2.929,7.678,0,10.607c1.464,1.464,3.384,2.196,5.303,2.196
		s3.839-0.732,5.303-2.196l67.84-67.84c2.929-2.93,2.929-7.678,0-10.607C464.875,386.429,460.126,386.429,457.197,389.357z
		 M15,87.349V25.607l292.48,292.48c1.464,1.464,3.384,2.196,5.303,2.196s3.839-0.732,5.303-2.196c2.929-2.93,2.929-7.678,0-10.607
		L25.607,15h61.742l262.562,292.476l-42.435,42.435L15,87.349z M302.756,397.058l-10.607-10.607l94.302-94.301l10.607,10.606
		l-30.111,30.111c-0.019,0.019-34.06,34.06-34.06,34.06C332.868,366.946,302.756,397.058,302.756,397.058z M348.787,372.24
		l23.453-23.453l62.763,62.763l-23.453,23.453L348.787,372.24z"/>
	<path d="M250.149,151.372c3.083,2.768,7.824,2.512,10.591-0.571L382.651,15h61.742L282.52,176.873
		c-2.929,2.93-2.929,7.678,0,10.607c1.464,1.464,3.384,2.196,5.303,2.196s3.839-0.732,5.303-2.196L455,25.607v61.742
		L315.285,212.775c-3.083,2.768-3.338,7.509-0.571,10.591c1.481,1.65,3.528,2.49,5.583,2.49c1.785,0,3.575-0.633,5.008-1.919
		L467.51,96.276c1.584-1.423,2.49-3.451,2.49-5.581V7.503c0-0.248-0.013-0.496-0.037-0.744c-0.01-0.107-0.031-0.211-0.046-0.317
		c-0.019-0.136-0.036-0.273-0.062-0.409c-0.024-0.123-0.058-0.243-0.089-0.364c-0.029-0.116-0.055-0.232-0.089-0.347
		c-0.036-0.119-0.081-0.234-0.123-0.351c-0.041-0.114-0.078-0.229-0.125-0.342c-0.045-0.109-0.099-0.214-0.149-0.321
		c-0.054-0.115-0.105-0.231-0.165-0.343c-0.055-0.103-0.118-0.202-0.178-0.302c-0.065-0.109-0.127-0.22-0.199-0.327
		c-0.074-0.111-0.157-0.216-0.237-0.322c-0.067-0.089-0.129-0.181-0.2-0.268c-0.148-0.18-0.305-0.353-0.469-0.519
		c-0.228-0.225-0.399-0.381-0.578-0.528c-0.086-0.071-0.177-0.132-0.266-0.199c-0.107-0.08-0.212-0.163-0.323-0.238
		c-0.104-0.069-0.212-0.13-0.318-0.193c-0.104-0.062-0.206-0.127-0.313-0.185c-0.106-0.057-0.215-0.104-0.323-0.155
		c-0.114-0.054-0.227-0.111-0.344-0.159c-0.103-0.042-0.208-0.077-0.312-0.114c-0.127-0.046-0.252-0.094-0.381-0.133
		c-0.101-0.031-0.204-0.053-0.307-0.079c-0.135-0.035-0.268-0.072-0.406-0.099c-0.112-0.022-0.224-0.034-0.336-0.051
		c-0.13-0.02-0.258-0.043-0.39-0.056c-0.185-0.018-0.371-0.024-0.557-0.028C462.618,0.008,462.56,0,462.5,0h-83.195
		c-2.129,0-4.159,0.905-5.581,2.49L249.578,140.781C246.811,143.863,247.067,148.606,250.149,151.372z"/>
	<path d="M207.534,309.505l-45.009,40.406l-42.435-42.435l37.475-41.745c2.767-3.082,2.511-7.824-0.571-10.591
		c-3.083-2.768-7.824-2.513-10.591,0.571l-36.935,41.143l-20.615-20.615c-2.929-2.928-7.678-2.928-10.606,0l-21.213,21.213
		c-1.407,1.407-2.197,3.314-2.197,5.304s0.79,3.896,2.197,5.304l30.12,30.12L24.39,400.943l-11.587-11.587
		c-2.929-2.928-7.678-2.928-10.606,0c-2.929,2.93-2.929,7.678,0,10.607l67.84,67.84c1.464,1.464,3.384,2.196,5.303,2.196
		s3.839-0.732,5.303-2.196c2.929-2.93,2.929-7.678,0-10.607L69.057,445.61l62.763-62.763l30.121,30.121
		c1.406,1.406,3.314,2.196,5.303,2.196s3.897-0.79,5.303-2.197l21.213-21.214c2.929-2.929,2.929-7.677,0-10.606l-20.614-20.614
		l44.408-39.865c3.082-2.767,3.338-7.509,0.571-10.591C215.359,306.993,210.616,306.738,207.534,309.505z M58.45,435.003
		L34.997,411.55l62.763-62.763l23.453,23.453L58.45,435.003z M167.244,397.058l-30.112-30.112c-0.019-0.019-34.06-34.06-34.06-34.06
		c-0.019-0.019-30.13-30.13-30.13-30.13l10.607-10.606l94.302,94.301L167.244,397.058z"/>
	<path d="M151.917,318.084c1.464,1.464,3.384,2.196,5.303,2.196s3.839-0.732,5.303-2.196l24.958-24.959
		c2.929-2.93,2.929-7.678,0-10.607c-2.929-2.928-7.678-2.928-10.606,0l-24.958,24.959
		C148.987,310.406,148.987,315.154,151.917,318.084z"/>
</g>
</svg>